<?xml version="1.0" encoding="utf-8"?>
<!-- Generator: Adobe Illustrator 20.1.0, SVG Export Plug-In . SVG Version: 6.00 Build 0)  -->
<svg version="1.1" id="Layer_1" xmlns="http://www.w3.org/2000/svg" xmlns:xlink="http://www.w3.org/1999/xlink" x="0px" y="0px"
	 viewBox="0 0 1600 641.9" style="enable-background:new 0 0 1600 641.9;" xml:space="preserve">
<style type="text/css">
	.st0{opacity:0.12;fill:#007BFF;enable-background:new    ;}
	.st1{fill:none;stroke:#007BFF;stroke-width:4;stroke-linecap:round;stroke-miterlimit:10;}
	.st2{fill:#082E51;}
	.st3{fill:none;stroke:#082E51;stroke-width:4;stroke-linecap:round;stroke-linejoin:round;stroke-miterlimit:10;}
	.st4{fill:none;stroke:#082E51;stroke-width:4;stroke-linecap:round;stroke-linejoin:round;}
	.st5{fill:none;stroke:#082E51;stroke-width:4;stroke-linecap:round;stroke-linejoin:round;stroke-dasharray:12.2549,12.2549;}
	.st6{fill:none;stroke:#082E51;stroke-width:4;stroke-linecap:round;stroke-linejoin:round;stroke-dasharray:12.2497,12.2497;}
</style>
<rect x="21.4" y="29.9" class="st0" width="363.8" height="66.5"/>
<rect x="568.4" y="19.5" class="st0" width="407.7" height="66.5"/>
<rect x="1209.2" y="19.5" class="st0" width="369" height="66.5"/>
<rect x="21.8" y="476.2" class="st0" width="366.1" height="66.5"/>
<rect x="21.4" y="29.9" class="st1" width="363.8" height="133"/>
<g>
	<path pointer-events="none" class="st2" d="M533.6,426.1l6.2-13.6l-7-13.1l27.1,12.7L533.6,426.1z"/>
	<polyline class="st3" points="539.9,412.5 203.3,412.5 203.3,173.2 	"/>
</g>
<g>
	<path pointer-events="none" class="st2" d="M1180.9,103.6l6.2-13.6l-7-13.1l27.1,12.7L1180.9,103.6z"/>
	<line class="st3" x1="1187.2" y1="90" x2="1018.8" y2="90"/>
</g>
<g>
	<g>
		<g>
			<line class="st4" x1="1392.3" y1="192.9" x2="1392.3" y2="198.9"/>
			<line class="st5" x1="1392.3" y1="211.1" x2="1392.3" y2="401.1"/>
			<polyline class="st4" points="1392.3,407.2 1392.3,413.2 1386.3,413.2 			"/>
			<line class="st6" x1="1374.1" y1="413" x2="988.2" y2="409.1"/>
			<line class="st4" x1="982.1" y1="409.1" x2="976.1" y2="409"/>
		</g>
	</g>
	<polygon class="st3" points="1391.2,158.1 1374.3,192.9 1408,192.9 	"/>
</g>
<g>
	<path pointer-events="none" class="st2" d="M387.9,511.8l27.1-12.7l-7,13.1l6.2,13.6L387.9,511.8z"/>
	<polyline class="st3" points="566.2,579.2 474,579.2 474,512.2 407.9,512.2 	"/>
</g>
<g>
	<path pointer-events="none" class="st2" d="M97.4,447.7l13.6,6.2l13.1-7L111.4,474L97.4,447.7z"/>
	<line class="st3" x1="111" y1="454" x2="111" y2="173.2"/>
</g>
<line class="st1" x1="21.4" y1="96.4" x2="385.1" y2="96.4"/>
<rect x="21.4" y="478.5" class="st1" width="363.8" height="133"/>
<line class="st1" x1="21.4" y1="545" x2="385.1" y2="545"/>
<rect x="1211.7" y="19.5" class="st1" width="363.8" height="133"/>
<line class="st1" x1="1211.7" y1="86" x2="1575.4" y2="86"/>
<rect x="566.2" y="19.5" class="st1" width="409.8" height="259.5"/>
<line class="st1" x1="566.2" y1="86" x2="976.1" y2="86"/>
<rect x="566.2" y="341.5" class="st1" width="409.8" height="270"/>
<line class="st1" x1="566.2" y1="409" x2="976.1" y2="409"/>
<line class="st1" x1="566.2" y1="535.5" x2="976.1" y2="535.5"/>
<line class="st1" x1="566.2" y1="163.9" x2="976.1" y2="163.9"/>
<polygon class="st3" points="1018.8,90 1000.8,101.4 981.2,89.4 1000.8,77.4 "/>
<g>
	<path class="st2" d="M178.1,67.9c-0.7,4.2-4,7.1-9.1,7.1c-6.7,0-10.5-4.8-10.5-11.5c0-6.7,3.8-11.5,10.5-11.5c4.7,0,8,2.6,8.8,6.6
		H174c-0.7-2.1-2.2-3.2-4.9-3.2c-4.6,0-6.7,3.7-6.7,8.1c0,4.4,2.1,8.1,6.7,8.1c2.7,0,4.5-1.4,5.1-3.7H178.1z"/>
	<path class="st2" d="M185.6,52v22.6h-3.5V52H185.6z"/>
	<path class="st2" d="M190.4,55.4V52h3.6v3.4H190.4z M194,74.7h-3.5V58.8h3.5V74.7z"/>
	<path class="st2" d="M213.1,67h-11.7c0.1,3.2,1.6,5,4.4,5c1.9,0,3-0.7,3.5-2h3.6c-0.6,3-3,5-7.1,5c-5,0-7.9-3.5-7.9-8.4
		c0-4.9,3-8.2,7.8-8.2c4.8,0,7.3,3.3,7.4,7.4V67z M201.6,64.4h7.9c-0.2-1.8-1.5-3.2-3.8-3.2C203.3,61.2,202,62.6,201.6,64.4z"/>
	<path class="st2" d="M228.2,74.7v-9.2c0-2.6-1.2-3.9-3.5-3.9c-2.5,0-4.1,2.1-4.1,4.6v8.5H217V58.8h3.4v1.5h0.7
		c0.9-1.2,2.5-1.9,4.6-1.9c4,0,5.9,2.4,5.9,6.3v9.9H228.2z"/>
	<path class="st2" d="M244.4,58.8v3h-3.7v7.7c0,1.3,0.7,2.1,2.4,2.1h1.3v3h-1.4c-3.5,0-5.9-1.1-5.9-4.7v-8.2h-2.5v-3h2.5v-4.6h3.5
		v4.6H244.4z"/>
</g>
<g>
	<path class="st2" d="M721.6,43.4v22.2h-3.7V43.4H721.6z"/>
	<path class="st2" d="M738,65.7v-9.2c0-2.6-1.2-3.9-3.5-3.9c-2.5,0-4.1,2.1-4.1,4.6v8.5h-3.5V49.8h3.4v1.5h0.7
		c0.9-1.2,2.5-1.9,4.6-1.9c4,0,5.9,2.4,5.9,6.3v9.9H738z"/>
	<path class="st2" d="M744.4,49.8h3.6l3.8,12.5h1.4l3.6-12.5h3.6l-4.9,15.8h-6.2L744.4,49.8z"/>
	<path class="st2" d="M778.5,57.7c0,4.9-3,8.3-8,8.3s-8-3.5-8-8.3c0-4.8,3-8.3,8-8.3S778.5,52.9,778.5,57.7z M774.9,57.7
		c0-2.8-1.4-5.3-4.5-5.3S766,55,766,57.7c0,2.8,1.4,5.4,4.5,5.4S774.9,60.6,774.9,57.7z"/>
	<path class="st2" d="M793.8,65.7l-4.1-8h-0.7l-3,3.4v4.6h-3.5V43h3.5v13.8l6.7-7h4l-4.6,4.9l5.5,10.9H793.8z"/>
	<path class="st2" d="M814.5,58h-11.7c0.1,3.2,1.6,5,4.4,5c1.9,0,3-0.7,3.5-2h3.6c-0.6,3-3,5-7.1,5c-5,0-7.9-3.5-7.9-8.4
		c0-4.9,3-8.2,7.8-8.2c4.8,0,7.3,3.3,7.4,7.4V58z M803,55.4h7.9c-0.2-1.8-1.5-3.2-3.8-3.2C804.6,52.2,803.4,53.6,803,55.4z"/>
	<path class="st2" d="M828.3,53.1h-1.4c-3.2,0-4.9,1.8-4.9,5.2v7.4h-3.5V49.8h3.4v1.8h0.7c0.7-0.9,2-1.8,4.4-1.8h1.3V53.1z"/>
</g>
<g>
	<path class="st2" d="M1336.2,58.9c-0.7,4.2-4,7.1-9.1,7.1c-6.7,0-10.5-4.8-10.5-11.5c0-6.7,3.8-11.5,10.5-11.5c4.7,0,8,2.6,8.8,6.6
		h-3.9c-0.7-2.1-2.2-3.2-4.9-3.2c-4.6,0-6.7,3.7-6.7,8.1c0,4.4,2.1,8.1,6.7,8.1c2.7,0,4.5-1.4,5.1-3.7H1336.2z"/>
	<path class="st2" d="M1355.2,57.7c0,4.9-3,8.3-8,8.3s-8-3.5-8-8.3c0-4.8,3-8.3,8-8.3S1355.2,52.9,1355.2,57.7z M1351.7,57.7
		c0-2.8-1.4-5.3-4.5-5.3s-4.5,2.6-4.5,5.3c0,2.8,1.4,5.4,4.5,5.4S1351.7,60.6,1351.7,57.7z"/>
	<path class="st2" d="M1381.8,55.5v10.1h-3.5v-9.5c0-2.4-0.8-3.6-2.7-3.6c-2.2,0-3.4,1.7-3.4,4.1v9h-3.5v-9.5c0-2.3-0.8-3.6-2.7-3.6
		c-2.3,0-3.4,2-3.4,4.5v8.6h-3.5V49.8h3.4v1.4h0.7c0.8-1.2,2-1.8,4-1.8c1.9,0,3.3,0.7,4.1,1.9h0.7c1-1.3,2.4-1.9,4.4-1.9
		C1380.2,49.4,1381.8,51.8,1381.8,55.5z"/>
	<path class="st2" d="M1409.2,55.5v10.1h-3.5v-9.5c0-2.4-0.8-3.6-2.7-3.6c-2.2,0-3.4,1.7-3.4,4.1v9h-3.5v-9.5c0-2.3-0.8-3.6-2.7-3.6
		c-2.3,0-3.4,2-3.4,4.5v8.6h-3.5V49.8h3.4v1.4h0.7c0.8-1.2,2-1.8,4-1.8c1.9,0,3.3,0.7,4.1,1.9h0.7c1-1.3,2.4-1.9,4.4-1.9
		C1407.5,49.4,1409.2,51.8,1409.2,55.5z"/>
	<path class="st2" d="M1423.7,64.2h-0.7c-1,1.2-2.5,1.9-4.7,1.9c-3.6,0-5.7-2.5-5.7-5.2c0-2.5,1.7-5.3,6.3-5.3h4.7v-0.5
		c0-1.7-1-2.9-3.3-2.9c-2,0-3,0.8-3.2,2h-3.5c0.2-3,2.8-4.8,6.5-4.8c4.1,0,6.8,1.8,6.8,5.7v10.5h-3.3V64.2z M1423.6,59.2V58h-4
		c-2.2,0-3.4,1-3.4,2.6c0,1.6,1.2,2.6,3.2,2.6C1421.7,63.2,1423.6,61.5,1423.6,59.2z"/>
	<path class="st2" d="M1442.7,65.7v-9.2c0-2.6-1.2-3.9-3.5-3.9c-2.5,0-4.1,2.1-4.1,4.6v8.5h-3.5V49.8h3.4v1.5h0.7
		c0.9-1.2,2.5-1.9,4.6-1.9c4,0,5.9,2.4,5.9,6.3v9.9H1442.7z"/>
	<path class="st2" d="M1461.3,51.3h0.7V43h3.5v22.6h-3.4v-1.5h-0.7c-0.9,1.1-2.3,1.9-4.7,1.9c-4.3,0-6.8-3.6-6.8-8.3
		c0-4.8,2.6-8.3,6.8-8.3C1459.1,49.4,1460.5,50.2,1461.3,51.3z M1462.2,57.7c0-2.8-1.3-5.3-4.4-5.3c-2.9,0-4.3,2.3-4.3,5.3
		c0,3.1,1.4,5.4,4.3,5.4C1460.9,63.1,1462.2,60.6,1462.2,57.7z"/>
</g>
<g>
	<path class="st2" d="M1058.9,74.7v-9.4c0-2.8-1.3-4.3-4-4.3c-2.8,0-4.7,2.5-4.7,5.2v8.5h-2.6V52h2.6v8.6h0.7
		c0.8-1.2,2.6-2.1,4.7-2.1c3.8,0,5.9,2.4,5.9,6.1v10H1058.9z"/>
	<path class="st2" d="M1080.9,66.8c0,4.6-2.8,8.2-7.7,8.2c-4.9,0-7.7-3.6-7.7-8.2s2.8-8.2,7.7-8.2
		C1078.1,58.6,1080.9,62.2,1080.9,66.8z M1078.2,66.8c0-3.1-1.6-5.9-5.1-5.9c-3.5,0-5.1,2.9-5.1,5.9s1.6,5.9,5.1,5.9
		C1076.6,72.8,1078.2,69.9,1078.2,66.8z"/>
	<path class="st2" d="M1087.7,52v22.6h-2.6V52H1087.7z"/>
	<path class="st2" d="M1106.8,52v22.6h-2.6V73h-0.7c-0.9,1.1-2.4,2.1-4.9,2.1c-4.3,0-6.9-3.6-6.9-8.2c0-4.7,2.6-8.2,6.9-8.2
		c2.5,0,3.9,1,4.8,2.1h0.7V52H1106.8z M1104.2,66.8c0-3.1-1.4-5.9-4.9-5.9c-3.1,0-4.8,2.5-4.8,5.9c0,3.5,1.7,5.9,4.8,5.9
		C1102.8,72.8,1104.2,69.9,1104.2,66.8z"/>
	<path class="st2" d="M1117.7,65.1l1.8,0.3c2.7,0.5,4.5,1.9,4.5,4.7c0,2.6-2.2,4.9-6.4,4.9c-4.4,0-6.6-2-7-4.9h2.7
		c0.2,1.8,1.8,2.6,4.2,2.6s3.9-0.8,3.9-2.6c0-1.4-0.9-2.1-2.9-2.5l-3.5-0.6c-2.2-0.4-3.8-1.6-3.8-4c0-2.6,2-4.6,6.2-4.6
		c3.7,0,5.8,1.7,6.2,4.5h-2.6c-0.2-1.5-1.7-2.2-3.7-2.2c-2,0-3.4,0.7-3.4,2.1c0,1.2,0.8,1.7,2.4,1.9L1117.7,65.1z"/>
</g>
<g>
	<path class="st2" d="M1234.5,117.2h2.3v6.8h6.8v2.3h-6.8v6.8h-2.3v-6.8h-6.8v-2.3h6.8V117.2z"/>
	<path class="st2" d="M1271.1,126h-11.9c0.1,3.7,1.8,6,5,6c2.2,0,3.5-0.9,4-2.4h2.7c-0.5,2.7-2.8,4.7-6.7,4.7
		c-4.9,0-7.6-3.6-7.6-8.4c0-4.8,2.8-8.1,7.6-8.1c4.7,0,6.9,3.5,7,7.3V126z M1259.3,123.8h9.1c-0.2-2-1.7-3.7-4.3-3.7
		C1261.2,120.1,1259.6,121.8,1259.3,123.8z"/>
	<path class="st2" d="M1281.3,127.3h-1.1l-4,6.6h-2.9l4.9-8l-4.4-7.7h2.8l3.6,6.2h1.1l3.7-6.2h2.8l-4.4,7.6l4.9,8.1h-3L1281.3,127.3
		z"/>
	<path class="st2" d="M1305.1,126h-11.9c0.1,3.7,1.8,6,5,6c2.2,0,3.5-0.9,4-2.4h2.7c-0.5,2.7-2.8,4.7-6.7,4.7
		c-4.9,0-7.6-3.6-7.6-8.4c0-4.8,2.8-8.1,7.6-8.1c4.7,0,6.9,3.5,7,7.3V126z M1293.3,123.8h9.1c-0.2-2-1.7-3.7-4.3-3.7
		C1295.2,120.1,1293.6,121.8,1293.3,123.8z"/>
	<path class="st2" d="M1322.4,129.2c-0.6,3.1-3,5.1-6.6,5.1c-4.9,0-7.6-3.6-7.6-8.2c0-4.7,2.7-8.2,7.6-8.2c3.7,0,6,2.1,6.5,4.9h-2.6
		c-0.5-1.6-1.7-2.6-3.9-2.6c-3.5,0-5,2.8-5,5.9c0,3.1,1.5,6,5,6c2.2,0,3.5-1.1,4-2.8H1322.4z"/>
	<path class="st2" d="M1328.8,118.2v9.4c0,2.9,1.3,4.3,4,4.3c2.8,0,4.7-2.4,4.7-5.2v-8.5h2.6v15.7h-2.6v-1.7h-0.7
		c-0.9,1.2-2.6,2.1-4.7,2.1c-3.9,0-6-2.4-6-6.1v-10H1328.8z"/>
	<path class="st2" d="M1352.7,118.2v2.3h-4v8.6c0,1.6,0.7,2.4,2.8,2.4h1.2v2.4h-1.2c-3.4,0-5.4-1.1-5.4-4.4v-9h-2.7v-2.3h2.7v-4.7
		h2.6v4.7H1352.7z"/>
	<path class="st2" d="M1370.4,126h-11.9c0.1,3.7,1.8,6,5,6c2.2,0,3.5-0.9,4-2.4h2.7c-0.5,2.7-2.8,4.7-6.7,4.7
		c-4.9,0-7.6-3.6-7.6-8.4c0-4.8,2.8-8.1,7.6-8.1c4.7,0,6.9,3.5,7,7.3V126z M1358.7,123.8h9.1c-0.2-2-1.7-3.7-4.3-3.7
		C1360.5,120.1,1359,121.8,1358.7,123.8z"/>
	<path class="st2" d="M1381,138.3h-2.6c-2.7-3.2-4.9-7.9-4.9-14.1c0-6.1,2.2-10.7,4.7-13.9h2.6c-2.5,3.4-4.8,7.7-4.8,13.9
		C1376,130.4,1378.4,134.9,1381,138.3z"/>
	<path class="st2" d="M1381.5,110.3h2.6c2.6,3.2,4.7,7.8,4.7,13.9c0,6.2-2.2,10.9-4.9,14.1h-2.6c2.6-3.4,5-7.8,5-14.1
		C1386.3,118,1384,113.7,1381.5,110.3z"/>
</g>
<g>
	<path class="st2" d="M587.5,575.2h2.3v6.8h6.8v2.3h-6.8v6.8h-2.3v-6.8h-6.8v-2.3h6.8V575.2z"/>
	<path class="st2" d="M624,584h-11.9c0.1,3.7,1.8,6,5,6c2.2,0,3.5-0.9,4-2.4h2.7c-0.5,2.7-2.8,4.7-6.7,4.7c-4.9,0-7.6-3.6-7.6-8.4
		c0-4.8,2.8-8.1,7.6-8.1c4.7,0,6.9,3.5,7,7.3V584z M612.2,581.8h9.1c-0.2-2-1.7-3.7-4.3-3.7C614.1,578.1,612.6,579.8,612.2,581.8z"
		/>
	<path class="st2" d="M634.2,585.3h-1.1l-4,6.6h-2.9l4.9-8l-4.4-7.7h2.8l3.6,6.2h1.1l3.7-6.2h2.8l-4.4,7.6l4.9,8.1h-3L634.2,585.3z"
		/>
	<path class="st2" d="M658,584H646c0.1,3.7,1.8,6,5,6c2.2,0,3.5-0.9,4-2.4h2.7c-0.5,2.7-2.8,4.7-6.7,4.7c-4.9,0-7.6-3.6-7.6-8.4
		c0-4.8,2.8-8.1,7.6-8.1c4.7,0,6.9,3.5,7,7.3V584z M646.2,581.8h9.1c-0.2-2-1.7-3.7-4.3-3.7C648.1,578.1,646.5,579.8,646.2,581.8z"
		/>
	<path class="st2" d="M675.3,587.2c-0.6,3.1-3,5.1-6.6,5.1c-4.9,0-7.6-3.6-7.6-8.2c0-4.7,2.7-8.2,7.6-8.2c3.7,0,6,2.1,6.5,4.9h-2.6
		c-0.5-1.6-1.7-2.6-3.9-2.6c-3.5,0-5,2.8-5,5.9c0,3.1,1.5,6,5,6c2.2,0,3.5-1.1,4-2.8H675.3z"/>
	<path class="st2" d="M681.7,576.2v9.4c0,2.9,1.3,4.3,4,4.3c2.8,0,4.7-2.4,4.7-5.2v-8.5h2.6v15.7h-2.6v-1.7h-0.7
		c-0.9,1.2-2.6,2.1-4.7,2.1c-3.9,0-6-2.4-6-6.1v-10H681.7z"/>
	<path class="st2" d="M705.7,576.2v2.3h-4v8.6c0,1.6,0.7,2.4,2.8,2.4h1.2v2.4h-1.2c-3.4,0-5.4-1.1-5.4-4.4v-9h-2.7v-2.3h2.7v-4.7
		h2.6v4.7H705.7z"/>
	<path class="st2" d="M723.4,584h-11.9c0.1,3.7,1.8,6,5,6c2.2,0,3.5-0.9,4-2.4h2.7c-0.5,2.7-2.8,4.7-6.7,4.7c-4.9,0-7.6-3.6-7.6-8.4
		c0-4.8,2.8-8.1,7.6-8.1c4.7,0,6.9,3.5,7,7.3V584z M711.6,581.8h9.1c-0.2-2-1.7-3.7-4.3-3.7C713.5,578.1,711.9,579.8,711.6,581.8z"
		/>
	<path class="st2" d="M733.9,596.3h-2.6c-2.7-3.2-4.9-7.9-4.9-14.1c0-6.1,2.2-10.7,4.7-13.9h2.6c-2.5,3.4-4.8,7.7-4.8,13.9
		C728.9,588.4,731.4,592.9,733.9,596.3z"/>
	<path class="st2" d="M734.4,568.3h2.6c2.6,3.2,4.7,7.8,4.7,13.9c0,6.2-2.2,10.9-4.9,14.1h-2.6c2.6-3.4,5-7.8,5-14.1
		C739.2,576,736.9,571.7,734.4,568.3z"/>
</g>
<g>
	<path class="st2" d="M46.5,575.2h2.3v6.8h6.8v2.3h-6.8v6.8h-2.3v-6.8h-6.8v-2.3h6.8V575.2z"/>
	<path class="st2" d="M79.4,590.2h-0.7c-1,1.2-2.6,2.1-4.9,2.1c-3.6,0-5.6-2.4-5.6-5.1c0-2.5,1.6-5.2,6-5.2h5.1v-0.6
		c0-1.9-1.1-3.3-3.8-3.3c-2.3,0-3.5,0.9-3.6,2.3h-2.6c0.2-2.9,2.7-4.6,6.2-4.6c4,0,6.5,1.9,6.5,5.4v10.7h-2.5V590.2z M79.3,585.5
		v-1.4h-4.7c-2.6,0-3.8,1.1-3.8,3c0,1.8,1.3,2.9,3.6,2.9C77.1,590,79.3,588,79.3,585.5z"/>
	<path class="st2" d="M100,587.2c-0.6,3.1-3,5.1-6.6,5.1c-4.9,0-7.6-3.6-7.6-8.2c0-4.7,2.7-8.2,7.6-8.2c3.7,0,6,2.1,6.5,4.9h-2.6
		c-0.5-1.6-1.7-2.6-3.9-2.6c-3.5,0-5,2.8-5,5.9c0,3.1,1.5,6,5,6c2.2,0,3.5-1.1,4-2.8H100z"/>
	<path class="st2" d="M111.5,576.2v2.3h-4v8.6c0,1.6,0.7,2.4,2.8,2.4h1.2v2.4h-1.2c-3.4,0-5.4-1.1-5.4-4.4v-9h-2.7v-2.3h2.7v-4.7
		h2.6v4.7H111.5z"/>
	<path class="st2" d="M115.9,572.1v-2.9h2.8v2.9H115.9z M118.6,591.9h-2.6v-15.7h2.6V591.9z"/>
	<path class="st2" d="M138.3,584.1c0,4.6-2.8,8.2-7.7,8.2c-4.9,0-7.7-3.6-7.7-8.2s2.8-8.2,7.7-8.2
		C135.4,575.8,138.3,579.4,138.3,584.1z M135.6,584.1c0-3.1-1.6-5.9-5.1-5.9c-3.5,0-5.1,2.9-5.1,5.9s1.6,5.9,5.1,5.9
		C134,590,135.6,587.1,135.6,584.1z"/>
	<path class="st2" d="M153.7,591.9v-9.4c0-2.9-1.3-4.3-4-4.3c-2.8,0-4.7,2.5-4.7,5.2v8.5h-2.6v-15.7h2.6v1.7h0.7
		c0.9-1.2,2.6-2.1,4.7-2.1c3.9,0,6,2.4,6,6.1v10H153.7z"/>
	<path class="st2" d="M167.6,596.3h-2.6c-2.7-3.2-4.9-7.9-4.9-14.1c0-6.1,2.2-10.7,4.7-13.9h2.6c-2.5,3.4-4.8,7.7-4.8,13.9
		C162.6,588.4,165.1,592.9,167.6,596.3z"/>
	<path class="st2" d="M168.1,568.3h2.6c2.6,3.2,4.7,7.8,4.7,13.9c0,6.2-2.2,10.9-4.9,14.1h-2.6c2.6-3.4,5-7.8,5-14.1
		C172.9,576,170.6,571.7,168.1,568.3z"/>
</g>
<g>
	<path class="st2" d="M1099.9,376.2v22.2h-2.8v-22.2H1099.9z"/>
	<path class="st2" d="M1127.1,388.2v10.1h-2.6v-9.9c0-2.6-1-3.9-3-3.9c-2.5,0-3.8,1.9-3.8,4.5v9.2h-2.6v-9.8c0-2.6-1-3.9-3-3.9
		c-2.6,0-3.9,2.2-3.9,5v8.7h-2.6v-15.7h2.6v1.5h0.7c0.8-1.2,2-1.9,4-1.9c1.9,0,3.3,0.7,4.1,2.1h0.7c1-1.4,2.5-2.1,4.4-2.1
		C1125.5,382.3,1127.1,384.6,1127.1,388.2z"/>
	<path class="st2" d="M1134.5,382.7v1.7h0.7c0.9-1.1,2.4-2.1,4.9-2.1c4.3,0,6.9,3.6,6.9,8.2c0,4.7-2.6,8.2-6.9,8.2
		c-2.5,0-4-1-4.8-2.1h-0.7v7.9h-2.6v-21.9H1134.5z M1134.6,390.5c0,3.1,1.4,5.9,4.9,5.9c3.1,0,4.8-2.5,4.8-5.9s-1.7-5.9-4.8-5.9
		C1136,384.6,1134.6,387.5,1134.6,390.5z"/>
	<path class="st2" d="M1153.7,375.8v22.6h-2.6v-22.6H1153.7z"/>
	<path class="st2" d="M1172.4,390.5h-11.9c0.1,3.7,1.8,6,5,6c2.2,0,3.5-0.9,4-2.4h2.7c-0.5,2.7-2.8,4.7-6.7,4.7
		c-4.9,0-7.6-3.6-7.6-8.4s2.8-8.1,7.6-8.1c4.7,0,6.9,3.5,7,7.3V390.5z M1160.6,388.3h9.1c-0.2-2-1.7-3.7-4.3-3.7
		C1162.5,384.6,1161,386.3,1160.6,388.3z"/>
	<path class="st2" d="M1198.1,388.2v10.1h-2.6v-9.9c0-2.6-1-3.9-3-3.9c-2.5,0-3.8,1.9-3.8,4.5v9.2h-2.6v-9.8c0-2.6-1-3.9-3-3.9
		c-2.6,0-3.9,2.2-3.9,5v8.7h-2.6v-15.7h2.6v1.5h0.7c0.8-1.2,2-1.9,4-1.9c1.9,0,3.3,0.7,4.1,2.1h0.7c1-1.4,2.5-2.1,4.4-2.1
		C1196.6,382.3,1198.1,384.6,1198.1,388.2z"/>
	<path class="st2" d="M1216.6,390.5h-11.9c0.1,3.7,1.8,6,5,6c2.2,0,3.5-0.9,4-2.4h2.7c-0.5,2.7-2.8,4.7-6.7,4.7
		c-4.9,0-7.6-3.6-7.6-8.4s2.8-8.1,7.6-8.1c4.7,0,6.9,3.5,7,7.3V390.5z M1204.8,388.3h9.1c-0.2-2-1.7-3.7-4.3-3.7
		C1206.7,384.6,1205.1,386.3,1204.8,388.3z"/>
	<path class="st2" d="M1232,398.4V389c0-2.9-1.3-4.3-4-4.3c-2.8,0-4.7,2.5-4.7,5.2v8.5h-2.6v-15.7h2.6v1.7h0.7
		c0.9-1.2,2.6-2.1,4.7-2.1c3.9,0,6,2.4,6,6.1v10H1232z"/>
	<path class="st2" d="M1247.1,382.7v2.3h-4v8.6c0,1.6,0.7,2.4,2.8,2.4h1.2v2.4h-1.2c-3.4,0-5.4-1.1-5.4-4.4v-9h-2.7v-2.3h2.7V378
		h2.6v4.7H1247.1z"/>
	<path class="st2" d="M1257.3,388.9l1.8,0.3c2.7,0.5,4.5,1.9,4.5,4.7c0,2.6-2.2,4.9-6.4,4.9c-4.4,0-6.6-2-7-4.9h2.7
		c0.2,1.8,1.8,2.6,4.2,2.6s3.9-0.8,3.9-2.6c0-1.4-0.9-2.1-2.9-2.5l-3.5-0.6c-2.2-0.4-3.8-1.6-3.8-4c0-2.6,2-4.6,6.2-4.6
		c3.7,0,5.8,1.7,6.2,4.5h-2.6c-0.2-1.5-1.7-2.2-3.7-2.2c-2,0-3.4,0.7-3.4,2.1c0,1.2,0.8,1.7,2.4,1.9L1257.3,388.9z"/>
</g>
<g>
	<path class="st2" d="M462.2,605.2c-0.9,4-3.9,6.7-8.8,6.7c-6.6,0-10.3-4.9-10.3-11.5s3.7-11.5,10.3-11.5c4.5,0,7.6,2.4,8.5,6.2h-3
		c-0.8-2.4-2.5-3.7-5.6-3.7c-5.2,0-7.5,4.3-7.5,9c0,4.7,2.3,9,7.4,9c3.1,0,5.1-1.6,5.8-4.2H462.2z"/>
	<path class="st2" d="M476.3,609.8h-0.7c-1,1.2-2.6,2.1-4.9,2.1c-3.6,0-5.6-2.4-5.6-5.1c0-2.5,1.6-5.2,6-5.2h5.1V601
		c0-1.9-1.1-3.3-3.8-3.3c-2.3,0-3.5,0.9-3.6,2.3h-2.6c0.2-2.9,2.7-4.6,6.2-4.6c4,0,6.5,1.9,6.5,5.4v10.7h-2.5V609.8z M476.2,605.1
		v-1.4h-4.7c-2.6,0-3.8,1.1-3.8,3c0,1.8,1.3,2.9,3.6,2.9C474,609.6,476.2,607.6,476.2,605.1z"/>
	<path class="st2" d="M486.3,588.9v22.6h-2.6v-22.6H486.3z"/>
	<path class="st2" d="M494.1,588.9v22.6h-2.6v-22.6H494.1z"/>
	<path class="st2" d="M505,602l1.8,0.3c2.7,0.5,4.5,1.9,4.5,4.7c0,2.6-2.2,4.9-6.4,4.9c-4.4,0-6.6-2-7-4.9h2.7
		c0.2,1.8,1.8,2.6,4.2,2.6c2.4,0,3.9-0.8,3.9-2.6c0-1.4-0.9-2.1-2.9-2.5l-3.5-0.6c-2.2-0.4-3.8-1.6-3.8-4c0-2.6,2-4.6,6.2-4.6
		c3.7,0,5.8,1.7,6.2,4.5h-2.6c-0.2-1.5-1.7-2.2-3.7-2.2c-2,0-3.4,0.7-3.4,2.1c0,1.2,0.8,1.7,2.4,1.9L505,602z"/>
</g>
<g>
	<path class="st2" d="M246.9,375.2c-0.9,4-3.9,6.7-8.8,6.7c-6.6,0-10.3-4.9-10.3-11.5s3.7-11.5,10.3-11.5c4.5,0,7.6,2.4,8.5,6.2h-3
		c-0.8-2.4-2.5-3.7-5.6-3.7c-5.2,0-7.5,4.3-7.5,9c0,4.7,2.3,9,7.4,9c3.1,0,5.1-1.6,5.8-4.2H246.9z"/>
	<path class="st2" d="M260,368.3h-1.3c-3.1,0-5,1.9-5,5.4v7.8H251v-15.7h2.6v1.9h0.7c0.8-1,2.3-1.9,4.5-1.9h1.2V368.3z"/>
	<path class="st2" d="M277,373.6h-11.9c0.1,3.7,1.8,6,5,6c2.2,0,3.5-0.9,4-2.4h2.7c-0.5,2.7-2.8,4.7-6.7,4.7c-4.9,0-7.6-3.6-7.6-8.4
		s2.8-8.1,7.6-8.1c4.7,0,6.9,3.5,7,7.3V373.6z M265.3,371.4h9.1c-0.2-2-1.7-3.7-4.3-3.7C267.2,367.7,265.6,369.4,265.3,371.4z"/>
	<path class="st2" d="M291.1,379.8h-0.7c-1,1.2-2.6,2.1-4.9,2.1c-3.6,0-5.6-2.4-5.6-5.1c0-2.5,1.6-5.2,6-5.2h5.1V371
		c0-1.9-1.1-3.3-3.8-3.3c-2.3,0-3.5,0.9-3.6,2.3h-2.6c0.2-2.9,2.7-4.6,6.2-4.6c4,0,6.5,1.9,6.5,5.4v10.7h-2.5V379.8z M291,375.1
		v-1.4h-4.7c-2.6,0-3.8,1.1-3.8,3c0,1.8,1.3,2.9,3.6,2.9C288.8,379.6,291,377.6,291,375.1z"/>
	<path class="st2" d="M306.1,365.8v2.3h-4v8.6c0,1.6,0.7,2.4,2.8,2.4h1.2v2.4h-1.2c-3.4,0-5.4-1.1-5.4-4.4v-9h-2.7v-2.3h2.7v-4.7
		h2.6v4.7H306.1z"/>
	<path class="st2" d="M323.8,373.6h-11.9c0.1,3.7,1.8,6,5,6c2.2,0,3.5-0.9,4-2.4h2.7c-0.5,2.7-2.8,4.7-6.7,4.7
		c-4.9,0-7.6-3.6-7.6-8.4s2.8-8.1,7.6-8.1c4.7,0,6.9,3.5,7,7.3V373.6z M312,371.4h9.1c-0.2-2-1.7-3.7-4.3-3.7
		C313.9,367.7,312.3,369.4,312,371.4z"/>
	<path class="st2" d="M333.7,372l1.8,0.3c2.7,0.5,4.5,1.9,4.5,4.7c0,2.6-2.2,4.9-6.4,4.9c-4.4,0-6.6-2-7-4.9h2.7
		c0.2,1.8,1.8,2.6,4.2,2.6c2.4,0,3.9-0.8,3.9-2.6c0-1.4-0.9-2.1-2.9-2.5l-3.5-0.6c-2.2-0.4-3.8-1.6-3.8-4c0-2.6,2-4.6,6.2-4.6
		c3.7,0,5.8,1.7,6.2,4.5h-2.6c-0.2-1.5-1.7-2.2-3.7-2.2c-2,0-3.4,0.7-3.4,2.1c0,1.2,0.8,1.7,2.4,1.9L333.7,372z"/>
</g>
<g>
	<path class="st2" d="M587.5,441.6h2.3v6.8h6.8v2.3h-6.8v6.8h-2.3v-6.8h-6.8v-2.3h6.8V441.6z"/>
	<path class="st2" d="M619.4,445.2h-1.3c-3.1,0-5,1.9-5,5.4v7.8h-2.6v-15.7h2.6v1.9h0.7c0.8-1,2.3-1.9,4.5-1.9h1.2V445.2z"/>
	<path class="st2" d="M636.4,450.5h-11.9c0.1,3.7,1.8,6,5,6c2.2,0,3.5-0.9,4-2.4h2.7c-0.5,2.7-2.8,4.7-6.7,4.7
		c-4.9,0-7.6-3.6-7.6-8.4s2.8-8.1,7.6-8.1c4.7,0,6.9,3.5,7,7.3V450.5z M624.6,448.3h9.1c-0.2-2-1.7-3.7-4.3-3.7
		C626.5,444.6,625,446.3,624.6,448.3z"/>
	<path class="st2" d="M653.8,453.6c-0.6,3.1-3,5.1-6.6,5.1c-4.9,0-7.6-3.6-7.6-8.2c0-4.7,2.7-8.2,7.6-8.2c3.7,0,6,2.1,6.5,4.9H651
		c-0.5-1.6-1.7-2.6-3.9-2.6c-3.5,0-5,2.8-5,5.9c0,3.1,1.5,6,5,6c2.2,0,3.5-1.1,4-2.8H653.8z"/>
	<path class="st2" d="M671.3,450.5h-11.9c0.1,3.7,1.8,6,5,6c2.2,0,3.5-0.9,4-2.4h2.7c-0.5,2.7-2.8,4.7-6.7,4.7
		c-4.9,0-7.6-3.6-7.6-8.4s2.8-8.1,7.6-8.1c4.7,0,6.9,3.5,7,7.3V450.5z M659.5,448.3h9.1c-0.2-2-1.7-3.7-4.3-3.7
		C661.4,444.6,659.9,446.3,659.5,448.3z"/>
	<path class="st2" d="M675.4,438.6v-2.9h2.8v2.9H675.4z M678.1,458.4h-2.6v-15.7h2.6V458.4z"/>
	<path class="st2" d="M681.5,442.7h2.7l4.4,13.2h1.3l4.2-13.2h2.8l-5.3,15.7h-4.9L681.5,442.7z"/>
	<path class="st2" d="M713.4,450.5h-11.9c0.1,3.7,1.8,6,5,6c2.2,0,3.5-0.9,4-2.4h2.7c-0.5,2.7-2.8,4.7-6.7,4.7
		c-4.9,0-7.6-3.6-7.6-8.4s2.8-8.1,7.6-8.1c4.7,0,6.9,3.5,7,7.3V450.5z M701.6,448.3h9.1c-0.2-2-1.7-3.7-4.3-3.7
		C703.5,444.6,702,446.3,701.6,448.3z"/>
	<path class="st2" d="M726.5,445.2h-1.3c-3.1,0-5,1.9-5,5.4v7.8h-2.6v-15.7h2.6v1.9h0.7c0.8-1,2.3-1.9,4.5-1.9h1.2V445.2z"/>
	<path class="st2" d="M587.5,479h2.3v6.8h6.8v2.3h-6.8v6.8h-2.3V488h-6.8v-2.3h6.8V479z"/>
	<path class="st2" d="M613,480v1.7h0.7c0.9-1.1,2.4-2.1,4.9-2.1c4.3,0,6.9,3.6,6.9,8.2c0,4.7-2.6,8.2-6.9,8.2c-2.5,0-4-1-4.8-2.1
		h-0.7v7.9h-2.6V480H613z M613,487.9c0,3.1,1.4,5.9,4.9,5.9c3.1,0,4.8-2.5,4.8-5.9s-1.7-5.9-4.8-5.9
		C614.5,481.9,613,484.8,613,487.9z"/>
	<path class="st2" d="M639.5,494.1h-0.7c-1,1.2-2.6,2.1-4.9,2.1c-3.6,0-5.6-2.4-5.6-5.1c0-2.5,1.6-5.2,6-5.2h5.1v-0.6
		c0-1.9-1.1-3.3-3.8-3.3c-2.3,0-3.5,0.9-3.6,2.3h-2.6c0.2-2.9,2.7-4.6,6.2-4.6c4,0,6.5,1.9,6.5,5.4v10.7h-2.5V494.1z M639.4,489.4
		v-1.4h-4.7c-2.6,0-3.8,1.1-3.8,3c0,1.8,1.3,2.9,3.6,2.9C637.2,493.8,639.4,491.8,639.4,489.4z"/>
	<path class="st2" d="M655.8,482.5h-1.3c-3.1,0-5,1.9-5,5.4v7.8h-2.6V480h2.6v1.9h0.7c0.8-1,2.3-1.9,4.5-1.9h1.2V482.5z"/>
	<path class="st2" d="M669.3,494.1h-0.7c-1,1.2-2.6,2.1-4.9,2.1c-3.6,0-5.6-2.4-5.6-5.1c0-2.5,1.6-5.2,6-5.2h5.1v-0.6
		c0-1.9-1.1-3.3-3.8-3.3c-2.3,0-3.5,0.9-3.6,2.3h-2.6c0.2-2.9,2.7-4.6,6.2-4.6c4,0,6.5,1.9,6.5,5.4v10.7h-2.5V494.1z M669.2,489.4
		v-1.4h-4.7c-2.6,0-3.8,1.1-3.8,3c0,1.8,1.3,2.9,3.6,2.9C667,493.8,669.2,491.8,669.2,489.4z"/>
	<path class="st2" d="M698.2,485.6v10.1h-2.6v-9.9c0-2.6-1-3.9-3-3.9c-2.5,0-3.8,1.9-3.8,4.5v9.2h-2.6v-9.8c0-2.6-1-3.9-3-3.9
		c-2.6,0-3.9,2.2-3.9,5v8.7h-2.6V480h2.6v1.5h0.7c0.8-1.2,2-1.9,4-1.9c1.9,0,3.3,0.7,4.1,2.1h0.7c1-1.4,2.5-2.1,4.4-2.1
		C696.7,479.6,698.2,482,698.2,485.6z"/>
	<path class="st2" d="M708.9,486.2l1.8,0.3c2.7,0.5,4.5,1.9,4.5,4.7c0,2.6-2.2,4.9-6.4,4.9c-4.4,0-6.6-2-7-4.9h2.7
		c0.2,1.8,1.8,2.6,4.2,2.6c2.4,0,3.9-0.8,3.9-2.6c0-1.4-0.9-2.1-2.9-2.5l-3.5-0.6c-2.2-0.4-3.8-1.6-3.8-4c0-2.6,2-4.6,6.2-4.6
		c3.7,0,5.8,1.7,6.2,4.5h-2.6c-0.2-1.5-1.7-2.2-3.7-2.2c-2,0-3.4,0.7-3.4,2.1c0,1.2,0.8,1.7,2.4,1.9L708.9,486.2z"/>
</g>
<g>
	<path class="st2" d="M587.5,117.2h2.3v6.8h6.8v2.3h-6.8v6.8h-2.3v-6.8h-6.8v-2.3h6.8V117.2z"/>
	<path class="st2" d="M623.7,129.2c-0.6,3.1-3,5.1-6.6,5.1c-4.9,0-7.6-3.6-7.6-8.2c0-4.7,2.7-8.2,7.6-8.2c3.7,0,6,2.1,6.5,4.9h-2.6
		c-0.5-1.6-1.7-2.6-3.9-2.6c-3.5,0-5,2.8-5,5.9c0,3.1,1.5,6,5,6c2.2,0,3.5-1.1,4-2.8H623.7z"/>
	<path class="st2" d="M642.1,126.1c0,4.6-2.8,8.2-7.7,8.2c-4.9,0-7.7-3.6-7.7-8.2s2.8-8.2,7.7-8.2
		C639.2,117.8,642.1,121.4,642.1,126.1z M639.4,126.1c0-3.1-1.6-5.9-5.1-5.9c-3.5,0-5.1,2.9-5.1,5.9s1.6,5.9,5.1,5.9
		C637.8,132,639.4,129.1,639.4,126.1z"/>
	<path class="st2" d="M667.8,123.7v10.1h-2.6V124c0-2.6-1-3.9-3-3.9c-2.5,0-3.8,1.9-3.8,4.5v9.2h-2.6v-9.8c0-2.6-1-3.9-3-3.9
		c-2.6,0-3.9,2.2-3.9,5v8.7h-2.6v-15.7h2.6v1.5h0.7c0.8-1.2,2-1.9,4-1.9c1.9,0,3.3,0.7,4.1,2.1h0.7c1-1.4,2.5-2.1,4.4-2.1
		C666.3,117.8,667.8,120.1,667.8,123.7z"/>
	<path class="st2" d="M694.3,123.7v10.1h-2.6V124c0-2.6-1-3.9-3-3.9c-2.5,0-3.8,1.9-3.8,4.5v9.2h-2.6v-9.8c0-2.6-1-3.9-3-3.9
		c-2.6,0-3.9,2.2-3.9,5v8.7h-2.6v-15.7h2.6v1.5h0.7c0.8-1.2,2-1.9,4-1.9c1.9,0,3.3,0.7,4.1,2.1h0.7c1-1.4,2.5-2.1,4.4-2.1
		C692.8,117.8,694.3,120.1,694.3,123.7z"/>
	<path class="st2" d="M709.1,132.2h-0.7c-1,1.2-2.6,2.1-4.9,2.1c-3.6,0-5.6-2.4-5.6-5.1c0-2.5,1.6-5.2,6-5.2h5.1v-0.6
		c0-1.9-1.1-3.3-3.8-3.3c-2.3,0-3.5,0.9-3.6,2.3h-2.6c0.2-2.9,2.7-4.6,6.2-4.6c4,0,6.5,1.9,6.5,5.4v10.7h-2.5V132.2z M709.1,127.5
		v-1.4h-4.7c-2.6,0-3.8,1.1-3.8,3c0,1.8,1.3,2.9,3.6,2.9C706.8,132,709.1,130,709.1,127.5z"/>
	<path class="st2" d="M727.8,133.9v-9.4c0-2.9-1.3-4.3-4-4.3c-2.8,0-4.7,2.5-4.7,5.2v8.5h-2.6v-15.7h2.6v1.7h0.7
		c0.9-1.2,2.6-2.1,4.7-2.1c3.9,0,6,2.4,6,6.1v10H727.8z"/>
	<path class="st2" d="M749.3,111.3v22.6h-2.6v-1.7h-0.7c-0.9,1.1-2.4,2.1-4.9,2.1c-4.3,0-6.9-3.6-6.9-8.2c0-4.7,2.6-8.2,6.9-8.2
		c2.5,0,3.9,1,4.8,2.1h0.7v-8.6H749.3z M746.7,126.1c0-3.1-1.4-5.9-4.9-5.9c-3.1,0-4.8,2.5-4.8,5.9c0,3.5,1.7,5.9,4.8,5.9
		C745.3,132,746.7,129.1,746.7,126.1z"/>
	<path class="st2" d="M754.2,121.8v-3.6h3.2v3.6H754.2z M754.2,133.9v-3.6h3.2v3.6H754.2z"/>
	<path class="st2" d="M789.3,127.6c-0.9,4-3.9,6.7-8.8,6.7c-6.6,0-10.3-4.9-10.3-11.5c0-6.6,3.7-11.5,10.3-11.5
		c4.5,0,7.6,2.4,8.5,6.2h-3c-0.8-2.4-2.5-3.7-5.6-3.7c-5.2,0-7.5,4.3-7.5,9c0,4.7,2.3,9,7.4,9c3.1,0,5.1-1.6,5.8-4.2H789.3z"/>
	<path class="st2" d="M807.9,126.1c0,4.6-2.8,8.2-7.7,8.2c-4.9,0-7.7-3.6-7.7-8.2s2.8-8.2,7.7-8.2
		C805,117.8,807.9,121.4,807.9,126.1z M805.2,126.1c0-3.1-1.6-5.9-5.1-5.9c-3.5,0-5.1,2.9-5.1,5.9s1.6,5.9,5.1,5.9
		C803.6,132,805.2,129.1,805.2,126.1z"/>
	<path class="st2" d="M833.6,123.7v10.1H831V124c0-2.6-1-3.9-3-3.9c-2.5,0-3.8,1.9-3.8,4.5v9.2h-2.6v-9.8c0-2.6-1-3.9-3-3.9
		c-2.6,0-3.9,2.2-3.9,5v8.7H812v-15.7h2.6v1.5h0.7c0.8-1.2,2-1.9,4-1.9c1.9,0,3.3,0.7,4.1,2.1h0.7c1-1.4,2.5-2.1,4.4-2.1
		C832.1,117.8,833.6,120.1,833.6,123.7z"/>
	<path class="st2" d="M860.1,123.7v10.1h-2.6V124c0-2.6-1-3.9-3-3.9c-2.5,0-3.8,1.9-3.8,4.5v9.2H848v-9.8c0-2.6-1-3.9-3-3.9
		c-2.6,0-3.9,2.2-3.9,5v8.7h-2.6v-15.7h2.6v1.5h0.7c0.8-1.2,2-1.9,4-1.9c1.9,0,3.3,0.7,4.1,2.1h0.7c1-1.4,2.5-2.1,4.4-2.1
		C858.5,117.8,860.1,120.1,860.1,123.7z"/>
	<path class="st2" d="M874.9,132.2h-0.7c-1,1.2-2.6,2.1-4.9,2.1c-3.6,0-5.6-2.4-5.6-5.1c0-2.5,1.6-5.2,6-5.2h5.1v-0.6
		c0-1.9-1.1-3.3-3.8-3.3c-2.3,0-3.5,0.9-3.6,2.3h-2.6c0.2-2.9,2.7-4.6,6.2-4.6c4,0,6.5,1.9,6.5,5.4v10.7h-2.5V132.2z M874.8,127.5
		v-1.4h-4.7c-2.6,0-3.8,1.1-3.8,3c0,1.8,1.3,2.9,3.6,2.9C872.6,132,874.8,130,874.8,127.5z"/>
	<path class="st2" d="M893.6,133.9v-9.4c0-2.9-1.3-4.3-4-4.3c-2.8,0-4.7,2.5-4.7,5.2v8.5h-2.6v-15.7h2.6v1.7h0.7
		c0.9-1.2,2.6-2.1,4.7-2.1c3.9,0,6,2.4,6,6.1v10H893.6z"/>
	<path class="st2" d="M915.1,111.3v22.6h-2.6v-1.7h-0.7c-0.9,1.1-2.4,2.1-4.9,2.1c-4.3,0-6.9-3.6-6.9-8.2c0-4.7,2.6-8.2,6.9-8.2
		c2.5,0,3.9,1,4.8,2.1h0.7v-8.6H915.1z M912.5,126.1c0-3.1-1.4-5.9-4.9-5.9c-3.1,0-4.8,2.5-4.8,5.9c0,3.5,1.7,5.9,4.8,5.9
		C911.1,132,912.5,129.1,912.5,126.1z"/>
</g>
<g>
	<path class="st2" d="M587.5,203.2h2.3v6.8h6.8v2.3h-6.8v6.8h-2.3v-6.8h-6.8v-2.3h6.8V203.2z"/>
	<path class="st2" d="M616.3,210.4l1.8,0.3c2.7,0.5,4.5,1.9,4.5,4.7c0,2.6-2.2,4.9-6.4,4.9c-4.4,0-6.6-2-7-4.9h2.7
		c0.2,1.8,1.8,2.6,4.2,2.6s3.9-0.8,3.9-2.6c0-1.4-0.9-2.1-2.9-2.5l-3.5-0.6c-2.2-0.4-3.8-1.6-3.8-4c0-2.6,2-4.6,6.2-4.6
		c3.7,0,5.8,1.7,6.2,4.5h-2.6c-0.2-1.5-1.7-2.2-3.7-2.2c-2,0-3.4,0.7-3.4,2.1c0,1.2,0.8,1.7,2.4,1.9L616.3,210.4z"/>
	<path class="st2" d="M640,212H628c0.1,3.7,1.8,6,5,6c2.2,0,3.5-0.9,4-2.4h2.7c-0.5,2.7-2.8,4.7-6.7,4.7c-4.9,0-7.6-3.6-7.6-8.4
		c0-4.8,2.8-8.1,7.6-8.1c4.7,0,6.9,3.5,7,7.3V212z M628.2,209.8h9.1c-0.2-2-1.7-3.7-4.3-3.7C630.1,206.1,628.5,207.8,628.2,209.8z"
		/>
	<path class="st2" d="M651.7,204.2v2.3h-4v8.6c0,1.6,0.7,2.4,2.8,2.4h1.2v2.4h-1.2c-3.4,0-5.4-1.1-5.4-4.4v-9h-2.7v-2.3h2.7v-4.7
		h2.6v4.7H651.7z"/>
	<path class="st2" d="M674.3,213.6c-0.9,4-3.9,6.7-8.8,6.7c-6.6,0-10.3-4.9-10.3-11.5c0-6.6,3.7-11.5,10.3-11.5
		c4.5,0,7.6,2.4,8.5,6.2h-3c-0.8-2.4-2.5-3.7-5.6-3.7c-5.2,0-7.5,4.3-7.5,9c0,4.7,2.3,9,7.4,9c3.1,0,5.1-1.6,5.8-4.2H674.3z"/>
	<path class="st2" d="M692.8,212.1c0,4.6-2.8,8.2-7.7,8.2c-4.9,0-7.7-3.6-7.7-8.2s2.8-8.2,7.7-8.2
		C690,203.8,692.8,207.4,692.8,212.1z M690.2,212.1c0-3.1-1.6-5.9-5.1-5.9c-3.5,0-5.1,2.9-5.1,5.9s1.6,5.9,5.1,5.9
		C688.6,218,690.2,215.1,690.2,212.1z"/>
	<path class="st2" d="M718.6,209.7v10.1H716V210c0-2.6-1-3.9-3-3.9c-2.5,0-3.8,1.9-3.8,4.5v9.2h-2.6v-9.8c0-2.6-1-3.9-3-3.9
		c-2.6,0-3.9,2.2-3.9,5v8.7H697v-15.7h2.6v1.5h0.7c0.8-1.2,2-1.9,4-1.9c1.9,0,3.3,0.7,4.1,2.1h0.7c1-1.4,2.5-2.1,4.4-2.1
		C717,203.8,718.6,206.1,718.6,209.7z"/>
	<path class="st2" d="M745.1,209.7v10.1h-2.6V210c0-2.6-1-3.9-3-3.9c-2.5,0-3.8,1.9-3.8,4.5v9.2h-2.6v-9.8c0-2.6-1-3.9-3-3.9
		c-2.6,0-3.9,2.2-3.9,5v8.7h-2.6v-15.7h2.6v1.5h0.7c0.8-1.2,2-1.9,4-1.9c1.9,0,3.3,0.7,4.1,2.1h0.7c1-1.4,2.5-2.1,4.4-2.1
		C743.5,203.8,745.1,206.1,745.1,209.7z"/>
	<path class="st2" d="M759.9,218.2h-0.7c-1,1.2-2.6,2.1-4.9,2.1c-3.6,0-5.6-2.4-5.6-5.1c0-2.5,1.6-5.2,6-5.2h5.1v-0.6
		c0-1.9-1.1-3.3-3.8-3.3c-2.3,0-3.5,0.9-3.6,2.3h-2.6c0.2-2.9,2.7-4.6,6.2-4.6c4,0,6.5,1.9,6.5,5.4v10.7h-2.5V218.2z M759.8,213.5
		v-1.4h-4.7c-2.6,0-3.8,1.1-3.8,3c0,1.8,1.3,2.9,3.6,2.9C757.6,218,759.8,216,759.8,213.5z"/>
	<path class="st2" d="M778.5,219.9v-9.4c0-2.9-1.3-4.3-4-4.3c-2.8,0-4.7,2.5-4.7,5.2v8.5h-2.6v-15.7h2.6v1.7h0.7
		c0.9-1.2,2.6-2.1,4.7-2.1c3.9,0,6,2.4,6,6.1v10H778.5z"/>
	<path class="st2" d="M800.1,197.3v22.6h-2.6v-1.7h-0.7c-0.9,1.1-2.4,2.1-4.9,2.1c-4.3,0-6.9-3.6-6.9-8.2c0-4.7,2.6-8.2,6.9-8.2
		c2.5,0,3.9,1,4.8,2.1h0.7v-8.6H800.1z M797.5,212.1c0-3.1-1.4-5.9-4.9-5.9c-3.1,0-4.8,2.5-4.8,5.9c0,3.5,1.7,5.9,4.8,5.9
		C796,218,797.5,215.1,797.5,212.1z"/>
	<path class="st2" d="M811.6,224.3h-2.6c-2.7-3.2-4.9-7.9-4.9-14.1c0-6.1,2.2-10.7,4.7-13.9h2.6c-2.5,3.4-4.8,7.7-4.8,13.9
		C806.6,216.4,809.1,220.9,811.6,224.3z"/>
	<path class="st2" d="M827.3,215.2c-0.6,3.1-3,5.1-6.6,5.1c-4.9,0-7.6-3.6-7.6-8.2c0-4.7,2.7-8.2,7.6-8.2c3.7,0,6,2.1,6.5,4.9h-2.6
		c-0.5-1.6-1.7-2.6-3.9-2.6c-3.5,0-5,2.8-5,5.9c0,3.1,1.5,6,5,6c2.2,0,3.5-1.1,4-2.8H827.3z"/>
	<path class="st2" d="M845.7,212.1c0,4.6-2.8,8.2-7.7,8.2c-4.9,0-7.7-3.6-7.7-8.2s2.8-8.2,7.7-8.2
		C842.8,203.8,845.7,207.4,845.7,212.1z M843,212.1c0-3.1-1.6-5.9-5.1-5.9c-3.5,0-5.1,2.9-5.1,5.9s1.6,5.9,5.1,5.9
		C841.4,218,843,215.1,843,212.1z"/>
	<path class="st2" d="M871.4,209.7v10.1h-2.6V210c0-2.6-1-3.9-3-3.9c-2.5,0-3.8,1.9-3.8,4.5v9.2h-2.6v-9.8c0-2.6-1-3.9-3-3.9
		c-2.6,0-3.9,2.2-3.9,5v8.7h-2.6v-15.7h2.6v1.5h0.7c0.8-1.2,2-1.9,4-1.9c1.9,0,3.3,0.7,4.1,2.1h0.7c1-1.4,2.5-2.1,4.4-2.1
		C869.9,203.8,871.4,206.1,871.4,209.7z"/>
	<path class="st2" d="M897.9,209.7v10.1h-2.6V210c0-2.6-1-3.9-3-3.9c-2.5,0-3.8,1.9-3.8,4.5v9.2h-2.6v-9.8c0-2.6-1-3.9-3-3.9
		c-2.6,0-3.9,2.2-3.9,5v8.7h-2.6v-15.7h2.6v1.5h0.7c0.8-1.2,2-1.9,4-1.9c1.9,0,3.3,0.7,4.1,2.1h0.7c1-1.4,2.5-2.1,4.4-2.1
		C896.3,203.8,897.9,206.1,897.9,209.7z"/>
	<path class="st2" d="M912.7,218.2H912c-1,1.2-2.6,2.1-4.9,2.1c-3.6,0-5.6-2.4-5.6-5.1c0-2.5,1.6-5.2,6-5.2h5.1v-0.6
		c0-1.9-1.1-3.3-3.8-3.3c-2.3,0-3.5,0.9-3.6,2.3h-2.6c0.2-2.9,2.7-4.6,6.2-4.6c4,0,6.5,1.9,6.5,5.4v10.7h-2.5V218.2z M912.6,213.5
		v-1.4h-4.7c-2.6,0-3.8,1.1-3.8,3c0,1.8,1.3,2.9,3.6,2.9C910.4,218,912.6,216,912.6,213.5z"/>
	<path class="st2" d="M931.4,219.9v-9.4c0-2.9-1.3-4.3-4-4.3c-2.8,0-4.7,2.5-4.7,5.2v8.5h-2.6v-15.7h2.6v1.7h0.7
		c0.9-1.2,2.6-2.1,4.7-2.1c3.9,0,6,2.4,6,6.1v10H931.4z"/>
	<path class="st2" d="M952.9,197.3v22.6h-2.6v-1.7h-0.7c-0.9,1.1-2.4,2.1-4.9,2.1c-4.3,0-6.9-3.6-6.9-8.2c0-4.7,2.6-8.2,6.9-8.2
		c2.5,0,3.9,1,4.8,2.1h0.7v-8.6H952.9z M950.3,212.1c0-3.1-1.4-5.9-4.9-5.9c-3.1,0-4.8,2.5-4.8,5.9c0,3.5,1.7,5.9,4.8,5.9
		C948.8,218,950.3,215.1,950.3,212.1z"/>
	<path class="st2" d="M955.8,196.3h2.6c2.6,3.2,4.7,7.8,4.7,13.9c0,6.2-2.2,10.9-4.9,14.1h-2.6c2.6-3.4,5-7.8,5-14.1
		C960.6,204,958.3,199.7,955.8,196.3z"/>
</g>
<g>
	<path class="st2" d="M587.5,240.2h2.3v6.8h6.8v2.3h-6.8v6.8h-2.3v-6.8h-6.8v-2.3h6.8V240.2z"/>
	<path class="st2" d="M624,249h-11.9c0.1,3.7,1.8,6,5,6c2.2,0,3.5-0.9,4-2.4h2.7c-0.5,2.7-2.8,4.7-6.7,4.7c-4.9,0-7.6-3.6-7.6-8.4
		c0-4.8,2.8-8.1,7.6-8.1c4.7,0,6.9,3.5,7,7.3V249z M612.2,246.8h9.1c-0.2-2-1.7-3.7-4.3-3.7C614.1,243.1,612.6,244.8,612.2,246.8z"
		/>
	<path class="st2" d="M634.2,250.3h-1.1l-4,6.6h-2.9l4.9-8l-4.4-7.7h2.8l3.6,6.2h1.1l3.7-6.2h2.8l-4.4,7.6l4.9,8.1h-3L634.2,250.3z"
		/>
	<path class="st2" d="M658,249H646c0.1,3.7,1.8,6,5,6c2.2,0,3.5-0.9,4-2.4h2.7c-0.5,2.7-2.8,4.7-6.7,4.7c-4.9,0-7.6-3.6-7.6-8.4
		c0-4.8,2.8-8.1,7.6-8.1c4.7,0,6.9,3.5,7,7.3V249z M646.2,246.8h9.1c-0.2-2-1.7-3.7-4.3-3.7C648.1,243.1,646.5,244.8,646.2,246.8z"
		/>
	<path class="st2" d="M675.3,252.2c-0.6,3.1-3,5.1-6.6,5.1c-4.9,0-7.6-3.6-7.6-8.2c0-4.7,2.7-8.2,7.6-8.2c3.7,0,6,2.1,6.5,4.9h-2.6
		c-0.5-1.6-1.7-2.6-3.9-2.6c-3.5,0-5,2.8-5,5.9c0,3.1,1.5,6,5,6c2.2,0,3.5-1.1,4-2.8H675.3z"/>
	<path class="st2" d="M681.7,241.2v9.4c0,2.9,1.3,4.3,4,4.3c2.8,0,4.7-2.4,4.7-5.2v-8.5h2.6v15.7h-2.6v-1.7h-0.7
		c-0.9,1.2-2.6,2.1-4.7,2.1c-3.9,0-6-2.4-6-6.1v-10H681.7z"/>
	<path class="st2" d="M705.7,241.2v2.3h-4v8.6c0,1.6,0.7,2.4,2.8,2.4h1.2v2.4h-1.2c-3.4,0-5.4-1.1-5.4-4.4v-9h-2.7v-2.3h2.7v-4.7
		h2.6v4.7H705.7z"/>
	<path class="st2" d="M723.4,249h-11.9c0.1,3.7,1.8,6,5,6c2.2,0,3.5-0.9,4-2.4h2.7c-0.5,2.7-2.8,4.7-6.7,4.7c-4.9,0-7.6-3.6-7.6-8.4
		c0-4.8,2.8-8.1,7.6-8.1c4.7,0,6.9,3.5,7,7.3V249z M711.6,246.8h9.1c-0.2-2-1.7-3.7-4.3-3.7C713.5,243.1,711.9,244.8,711.6,246.8z"
		/>
	<path class="st2" d="M733.9,261.3h-2.6c-2.7-3.2-4.9-7.9-4.9-14.1c0-6.1,2.2-10.7,4.7-13.9h2.6c-2.5,3.4-4.8,7.7-4.8,13.9
		C728.9,253.4,731.4,257.9,733.9,261.3z"/>
	<path class="st2" d="M749.5,252.2c-0.6,3.1-3,5.1-6.6,5.1c-4.9,0-7.6-3.6-7.6-8.2c0-4.7,2.7-8.2,7.6-8.2c3.7,0,6,2.1,6.5,4.9h-2.6
		c-0.5-1.6-1.7-2.6-3.9-2.6c-3.5,0-5,2.8-5,5.9c0,3.1,1.5,6,5,6c2.2,0,3.5-1.1,4-2.8H749.5z"/>
	<path class="st2" d="M768,249.1c0,4.6-2.8,8.2-7.7,8.2c-4.9,0-7.7-3.6-7.7-8.2s2.8-8.2,7.7-8.2C765.1,240.8,768,244.4,768,249.1z
		 M765.3,249.1c0-3.1-1.6-5.9-5.1-5.9c-3.5,0-5.1,2.9-5.1,5.9s1.6,5.9,5.1,5.9C763.7,255,765.3,252.1,765.3,249.1z"/>
	<path class="st2" d="M793.7,246.7v10.1h-2.6V247c0-2.6-1-3.9-3-3.9c-2.5,0-3.8,1.9-3.8,4.5v9.2h-2.6v-9.8c0-2.6-1-3.9-3-3.9
		c-2.6,0-3.9,2.2-3.9,5v8.7h-2.6v-15.7h2.6v1.5h0.7c0.8-1.2,2-1.9,4-1.9c1.9,0,3.3,0.7,4.1,2.1h0.7c1-1.4,2.5-2.1,4.4-2.1
		C792.2,240.8,793.7,243.1,793.7,246.7z"/>
	<path class="st2" d="M820.2,246.7v10.1h-2.6V247c0-2.6-1-3.9-3-3.9c-2.5,0-3.8,1.9-3.8,4.5v9.2h-2.6v-9.8c0-2.6-1-3.9-3-3.9
		c-2.6,0-3.9,2.2-3.9,5v8.7h-2.6v-15.7h2.6v1.5h0.7c0.8-1.2,2-1.9,4-1.9c1.9,0,3.3,0.7,4.1,2.1h0.7c1-1.4,2.5-2.1,4.4-2.1
		C818.6,240.8,820.2,243.1,820.2,246.7z"/>
	<path class="st2" d="M835,255.2h-0.7c-1,1.2-2.6,2.1-4.9,2.1c-3.6,0-5.6-2.4-5.6-5.1c0-2.5,1.6-5.2,6-5.2h5.1v-0.6
		c0-1.9-1.1-3.3-3.8-3.3c-2.3,0-3.5,0.9-3.6,2.3h-2.6c0.2-2.9,2.7-4.6,6.2-4.6c4,0,6.5,1.9,6.5,5.4v10.7H835V255.2z M834.9,250.5
		v-1.4h-4.7c-2.6,0-3.8,1.1-3.8,3c0,1.8,1.3,2.9,3.6,2.9C832.7,255,834.9,253,834.9,250.5z"/>
	<path class="st2" d="M853.7,256.9v-9.4c0-2.9-1.3-4.3-4-4.3c-2.8,0-4.7,2.5-4.7,5.2v8.5h-2.6v-15.7h2.6v1.7h0.7
		c0.9-1.2,2.6-2.1,4.7-2.1c3.9,0,6,2.4,6,6.1v10H853.7z"/>
	<path class="st2" d="M875.2,234.3v22.6h-2.6v-1.7H872c-0.9,1.1-2.4,2.1-4.9,2.1c-4.3,0-6.9-3.6-6.9-8.2c0-4.7,2.6-8.2,6.9-8.2
		c2.5,0,3.9,1,4.8,2.1h0.7v-8.6H875.2z M872.6,249.1c0-3.1-1.4-5.9-4.9-5.9c-3.1,0-4.8,2.5-4.8,5.9c0,3.5,1.7,5.9,4.8,5.9
		C871.1,255,872.6,252.1,872.6,249.1z"/>
	<path class="st2" d="M878.1,233.3h2.6c2.6,3.2,4.7,7.8,4.7,13.9c0,6.2-2.2,10.9-4.9,14.1h-2.6c2.6-3.4,5-7.8,5-14.1
		C882.9,241,880.6,236.7,878.1,233.3z"/>
</g>
<g>
	<path class="st2" d="M646.7,384.7c-0.7,4.2-4,7.1-9.1,7.1c-6.7,0-10.5-4.8-10.5-11.5s3.8-11.5,10.5-11.5c4.7,0,8,2.6,8.8,6.6h-3.9
		c-0.7-2.1-2.2-3.2-4.9-3.2c-4.6,0-6.7,3.7-6.7,8.1s2.1,8.1,6.7,8.1c2.7,0,4.5-1.4,5.1-3.7H646.7z"/>
	<path class="st2" d="M665.7,383.4c0,4.9-3,8.3-8,8.3c-5,0-8-3.5-8-8.3c0-4.8,3-8.3,8-8.3C662.7,375.1,665.7,378.6,665.7,383.4z
		 M662.2,383.4c0-2.8-1.4-5.3-4.5-5.3s-4.5,2.6-4.5,5.3c0,2.8,1.4,5.4,4.5,5.4S662.2,386.3,662.2,383.4z"/>
	<path class="st2" d="M680.7,391.4v-9.2c0-2.6-1.2-3.9-3.5-3.9c-2.5,0-4.1,2.1-4.1,4.6v8.5h-3.5v-15.8h3.4v1.5h0.7
		c0.9-1.2,2.5-1.9,4.6-1.9c4,0,5.9,2.4,5.9,6.3v9.9H680.7z"/>
	<path class="st2" d="M702.8,386.3c-0.5,3.3-3.1,5.5-7,5.5c-4.9,0-7.8-3.5-7.8-8.3s2.9-8.3,7.8-8.3c3.9,0,6.4,2.1,6.8,5.2h-3.5
		c-0.5-1.4-1.5-2.2-3.3-2.2c-3.1,0-4.4,2.5-4.4,5.3c0,2.9,1.2,5.4,4.4,5.4c2,0,3.1-0.9,3.5-2.5H702.8z"/>
	<path class="st2" d="M716.4,378.8H715c-3.2,0-4.9,1.8-4.9,5.2v7.4h-3.5v-15.8h3.4v1.8h0.7c0.7-0.9,2-1.8,4.4-1.8h1.3V378.8z"/>
	<path class="st2" d="M734,383.8h-11.7c0.1,3.2,1.6,5,4.4,5c1.9,0,3-0.7,3.5-2h3.6c-0.6,3-3,5-7.1,5c-5,0-7.9-3.5-7.9-8.4
		s3-8.2,7.8-8.2c4.8,0,7.3,3.3,7.4,7.4V383.8z M722.4,381.1h7.9c-0.2-1.8-1.5-3.2-3.8-3.2C724.1,377.9,722.8,379.3,722.4,381.1z"/>
	<path class="st2" d="M746,375.5v3h-3.7v7.7c0,1.3,0.7,2.1,2.4,2.1h1.3v3h-1.4c-3.5,0-5.9-1.1-5.9-4.7v-8.2h-2.5v-3h2.5v-4.6h3.5
		v4.6H746z"/>
	<path class="st2" d="M764.3,383.8h-11.7c0.1,3.2,1.6,5,4.4,5c1.9,0,3-0.7,3.5-2h3.6c-0.6,3-3,5-7.1,5c-5,0-7.9-3.5-7.9-8.4
		s3-8.2,7.8-8.2c4.8,0,7.3,3.3,7.4,7.4V383.8z M752.7,381.1h7.9c-0.2-1.8-1.5-3.2-3.8-3.2C754.4,377.9,753.1,379.3,752.7,381.1z"/>
	<path class="st2" d="M786.8,384.7c-0.7,4.2-4,7.1-9.1,7.1c-6.7,0-10.5-4.8-10.5-11.5s3.8-11.5,10.5-11.5c4.7,0,8,2.6,8.8,6.6h-3.9
		c-0.7-2.1-2.2-3.2-4.9-3.2c-4.6,0-6.7,3.7-6.7,8.1s2.1,8.1,6.7,8.1c2.7,0,4.5-1.4,5.1-3.7H786.8z"/>
	<path class="st2" d="M805.8,383.4c0,4.9-3,8.3-8,8.3c-5,0-8-3.5-8-8.3c0-4.8,3-8.3,8-8.3C802.8,375.1,805.8,378.6,805.8,383.4z
		 M802.3,383.4c0-2.8-1.4-5.3-4.5-5.3s-4.5,2.6-4.5,5.3c0,2.8,1.4,5.4,4.5,5.4S802.3,386.3,802.3,383.4z"/>
	<path class="st2" d="M832.5,381.3v10.1H829v-9.5c0-2.4-0.8-3.6-2.7-3.6c-2.2,0-3.4,1.7-3.4,4.1v9h-3.5v-9.5c0-2.3-0.8-3.6-2.7-3.6
		c-2.3,0-3.4,2-3.4,4.5v8.6h-3.5v-15.8h3.4v1.4h0.7c0.8-1.2,2-1.8,4-1.8c1.9,0,3.3,0.7,4.1,1.9h0.7c1-1.3,2.4-1.9,4.4-1.9
		C830.8,375.1,832.5,377.5,832.5,381.3z"/>
	<path class="st2" d="M859.8,381.3v10.1h-3.5v-9.5c0-2.4-0.8-3.6-2.7-3.6c-2.2,0-3.4,1.7-3.4,4.1v9h-3.5v-9.5c0-2.3-0.8-3.6-2.7-3.6
		c-2.3,0-3.4,2-3.4,4.5v8.6h-3.5v-15.8h3.4v1.4h0.7c0.8-1.2,2-1.8,4-1.8c1.9,0,3.3,0.7,4.1,1.9h0.7c1-1.3,2.4-1.9,4.4-1.9
		C858.2,375.1,859.8,377.5,859.8,381.3z"/>
	<path class="st2" d="M874.3,389.9h-0.7c-1,1.2-2.5,1.9-4.7,1.9c-3.6,0-5.7-2.5-5.7-5.2c0-2.5,1.7-5.3,6.3-5.3h4.7v-0.5
		c0-1.7-1-2.9-3.3-2.9c-2,0-3,0.8-3.2,2h-3.5c0.2-3,2.8-4.8,6.5-4.8c4.1,0,6.8,1.8,6.8,5.7v10.5h-3.3V389.9z M874.2,385v-1.2h-4
		c-2.2,0-3.4,1-3.4,2.6c0,1.6,1.2,2.6,3.2,2.6C872.4,388.9,874.2,387.2,874.2,385z"/>
	<path class="st2" d="M893.4,391.4v-9.2c0-2.6-1.2-3.9-3.5-3.9c-2.5,0-4.1,2.1-4.1,4.6v8.5h-3.5v-15.8h3.4v1.5h0.7
		c0.9-1.2,2.5-1.9,4.6-1.9c4,0,5.9,2.4,5.9,6.3v9.9H893.4z"/>
	<path class="st2" d="M912,377.1h0.7v-8.3h3.5v22.6h-3.4v-1.5h-0.7c-0.9,1.1-2.3,1.9-4.7,1.9c-4.3,0-6.8-3.6-6.8-8.3
		c0-4.8,2.6-8.3,6.8-8.3C909.8,375.1,911.1,375.9,912,377.1z M912.8,383.4c0-2.8-1.3-5.3-4.4-5.3c-2.9,0-4.3,2.3-4.3,5.3
		c0,3.1,1.4,5.4,4.3,5.4C911.5,388.8,912.8,386.3,912.8,383.4z"/>
</g>
<g>
	<path class="st2" d="M148.4,496.7c4.8,0,7.6,2.5,7.6,6.7c0,2.7-1.2,4.7-3.3,5.8l3.4,9.7h-3.8l-3.1-8.9c-0.7,0.1-1.3,0.1-2,0.1H142
		v8.8h-3.7v-22.2H148.4z M142,506.8h5.9c3.1,0,4.3-1.3,4.3-3.4c0-2.2-1.2-3.4-4.3-3.4H142V506.8z"/>
	<path class="st2" d="M174.6,511.3h-11.7c0.1,3.2,1.6,5,4.4,5c1.9,0,3-0.7,3.5-2h3.6c-0.6,3-3,5-7.1,5c-5,0-7.9-3.5-7.9-8.4
		s3-8.2,7.8-8.2c4.8,0,7.3,3.3,7.4,7.4V511.3z M163,508.7h7.9c-0.2-1.8-1.5-3.2-3.8-3.2C164.7,505.5,163.4,506.8,163,508.7z"/>
	<path class="st2" d="M192.3,513.8c-0.5,3.3-3.1,5.5-7,5.5c-4.9,0-7.8-3.5-7.8-8.3s2.9-8.3,7.8-8.3c3.9,0,6.4,2.1,6.8,5.2h-3.5
		c-0.5-1.4-1.5-2.2-3.3-2.2c-3.1,0-4.4,2.5-4.4,5.3c0,2.9,1.2,5.4,4.4,5.4c2,0,3.1-0.9,3.5-2.5H192.3z"/>
	<path class="st2" d="M210.4,511.3h-11.7c0.1,3.2,1.6,5,4.4,5c1.9,0,3-0.7,3.5-2h3.6c-0.6,3-3,5-7.1,5c-5,0-7.9-3.5-7.9-8.4
		s3-8.2,7.8-8.2c4.8,0,7.3,3.3,7.4,7.4V511.3z M198.8,508.7h7.9c-0.2-1.8-1.5-3.2-3.8-3.2C200.5,505.5,199.2,506.8,198.8,508.7z"/>
	<path class="st2" d="M214.2,499.7v-3.4h3.6v3.4H214.2z M217.8,518.9h-3.5v-15.8h3.5V518.9z"/>
	<path class="st2" d="M221,503.1h3.6l3.8,12.5h1.4l3.6-12.5h3.6l-4.9,15.8h-6.2L221,503.1z"/>
	<path class="st2" d="M254.2,511.3h-11.7c0.1,3.2,1.6,5,4.4,5c1.9,0,3-0.7,3.5-2h3.6c-0.6,3-3,5-7.1,5c-5,0-7.9-3.5-7.9-8.4
		s3-8.2,7.8-8.2c4.8,0,7.3,3.3,7.4,7.4V511.3z M242.6,508.7h7.9c-0.2-1.8-1.5-3.2-3.8-3.2C244.3,505.5,243.1,506.8,242.6,508.7z"/>
	<path class="st2" d="M268,506.3h-1.4c-3.2,0-4.9,1.8-4.9,5.2v7.4h-3.5v-15.8h3.4v1.8h0.7c0.7-0.9,2-1.8,4.4-1.8h1.3V506.3z"/>
</g>
</svg>
